<?xml version="1.0" encoding="UTF-8"?>
<!DOCTYPE svg PUBLIC "-//W3C//DTD SVG 1.1//EN" "http://www.w3.org/Graphics/SVG/1.1/DTD/svg11.dtd">
<svg xmlns="http://www.w3.org/2000/svg" version="1.1" width="766px" height="379px" style="shape-rendering:geometricPrecision; text-rendering:geometricPrecision; image-rendering:optimizeQuality; fill-rule:evenodd; clip-rule:evenodd" xmlns:xlink="http://www.w3.org/1999/xlink">
<g><path style="opacity:1" fill="#fefefe" d="M 188.5,-0.5 C 189.833,-0.5 191.167,-0.5 192.5,-0.5C 261.056,2.62052 314.222,32.6205 352,89.5C 388.565,154.625 389.232,219.959 354,285.5C 319.061,340.902 268.894,371.902 203.5,378.5C 194.833,378.5 186.167,378.5 177.5,378.5C 113.368,372.363 63.8681,342.363 29,288.5C -5.70944,226.05 -7.37611,162.717 24,98.5C 60.8946,35.9589 115.728,2.95887 188.5,-0.5 Z M 273.5,284.5 C 272.833,284.5 272.5,284.833 272.5,285.5C 258.699,286.234 254.366,279.901 259.5,266.5C 258.14,261.447 255.973,256.781 253,252.5C 221.707,265.615 189.207,274.282 155.5,278.5C 152.38,285.444 152.88,292.111 157,298.5C 160.419,302.26 164.086,305.593 168,308.5C 168.317,311.207 167.484,313.54 165.5,315.5C 163.097,315.448 160.764,315.781 158.5,316.5C 157.432,315.566 156.099,315.232 154.5,315.5C 148.524,314 142.524,313.667 136.5,314.5C 135.522,314.023 134.689,313.357 134,312.5C 135.622,301.953 136.455,291.286 136.5,280.5C 110.747,282.34 85.08,281.507 59.5,278C 54.028,277.367 48.6947,276.2 43.5,274.5C 16.9091,226.192 13.4091,176.192 33,124.5C 63.9239,57.4501 116.424,22.4501 190.5,19.5C 248.109,20.7199 294.275,44.0532 329,89.5C 349.785,119.191 360.118,152.191 360,188.5C 332.405,211.055 302.405,230.055 270,245.5C 270.438,254.514 274.938,260.681 283.5,264C 288.521,265.104 293.521,266.271 298.5,267.5C 299.662,271.837 298.329,275.337 294.5,278C 287.924,281.693 280.924,283.86 273.5,284.5 Z M 207.5,112.5 C 211.29,111.953 213.29,113.62 213.5,117.5C 213.475,130.411 210.975,130.744 206,118.5C 205.257,116.126 205.757,114.126 207.5,112.5 Z"/></g>
<g><path style="opacity:1" fill="#fefffe" d="M 236.5,46.5 C 241.447,45.6276 245.613,46.9609 249,50.5C 252.023,59.4699 252.189,68.4699 249.5,77.5C 258.217,78.731 264.051,83.3976 267,91.5C 266.933,103.297 270.1,114.13 276.5,124C 276.327,126.654 275.66,129.488 274.5,132.5C 273.707,132.931 272.873,133.265 272,133.5C 268.904,131.357 266.07,128.857 263.5,126C 262.056,125.219 260.723,125.386 259.5,126.5C 257.278,129.827 256.112,133.494 256,137.5C 255.333,148.5 255.333,159.5 256,170.5C 256.817,175.45 258.317,180.117 260.5,184.5C 260.61,186.374 259.944,187.874 258.5,189C 260.739,193.315 262.572,197.815 264,202.5C 263.651,211.819 263.651,221.152 264,230.5C 265.548,237.123 266.882,243.789 268,250.5C 273.179,263.155 282.679,269.155 296.5,268.5C 295.93,272.912 293.597,276.078 289.5,278C 286.07,278.881 282.737,280.048 279.5,281.5C 273.809,282.474 267.976,282.474 262,281.5C 261.131,279.419 260.631,277.253 260.5,275C 262.128,268.656 261.628,262.49 259,256.5C 255,249.833 251,243.167 247,236.5C 246.094,234.256 245.594,231.923 245.5,229.5C 247.189,223.938 247.689,218.272 247,212.5C 245.487,209.476 243.487,206.809 241,204.5C 237.831,211.326 233.331,217.159 227.5,222C 216.622,227.606 205.622,232.939 194.5,238C 192.391,239.141 190.558,240.641 189,242.5C 188.552,247.53 187.886,252.53 187,257.5C 185.733,261.869 183.567,265.703 180.5,269C 176.503,268.94 174.336,266.773 174,262.5C 172.969,255.86 172.136,249.193 171.5,242.5C 171.576,237.843 173.576,234.343 177.5,232C 182.754,231.083 187.754,229.416 192.5,227C 195.934,222.81 199.6,218.81 203.5,215C 207.674,212.412 212.007,210.079 216.5,208C 221.746,201.965 222.912,195.131 220,187.5C 215.816,178.131 212.483,168.464 210,158.5C 209.194,152.916 209.361,147.416 210.5,142C 206.367,143.4 202.367,145.4 198.5,148C 195.131,148.451 193.631,146.951 194,143.5C 197.577,140.627 201.411,138.127 205.5,136C 201.351,130.684 196.685,125.851 191.5,121.5C 190.063,119.979 189.396,118.145 189.5,116C 190.036,112.093 191.536,108.593 194,105.5C 200.888,97.2791 208.388,89.7791 216.5,83C 221.067,81.1916 225.733,79.6916 230.5,78.5C 230.987,77.5539 231.32,76.5539 231.5,75.5C 227.341,69.855 225.508,63.5217 226,56.5C 228.106,51.5573 231.606,48.224 236.5,46.5 Z M 207.5,112.5 C 205.757,114.126 205.257,116.126 206,118.5C 210.975,130.744 213.475,130.411 213.5,117.5C 213.29,113.62 211.29,111.953 207.5,112.5 Z"/></g>
<g><path style="opacity:1" fill="#fefefe" d="M 118.5,94.5 C 126.946,93.9745 132.779,97.6412 136,105.5C 136.855,111.8 136.355,118.133 134.5,124.5C 133.419,126.211 132.085,127.711 130.5,129C 132.881,130.946 135.381,132.779 138,134.5C 139.39,138.947 141.556,142.947 144.5,146.5C 149.221,149.527 154.221,152.027 159.5,154C 163.96,157.594 164.127,161.094 160,164.5C 159.83,162.285 159.163,160.285 158,158.5C 157.085,159.328 156.419,160.328 156,161.5C 155.737,158.736 154.237,157.069 151.5,156.5C 150.686,158.766 150.186,161.1 150,163.5C 147.766,165.7 145.266,167.533 142.5,169C 143.022,169.561 143.355,170.228 143.5,171C 142.214,173.569 141.214,176.236 140.5,179C 141.399,184.895 142.566,190.728 144,196.5C 147.955,204.076 151.622,211.743 155,219.5C 156.066,224.796 156.899,230.129 157.5,235.5C 156.391,245.81 155.557,256.144 155,266.5C 154.625,271.955 153.625,277.288 152,282.5C 150.287,290.067 151.953,296.734 157,302.5C 160.215,304.671 163.048,307.171 165.5,310C 164.192,312.573 162.026,313.74 159,313.5C 151.038,312.524 143.205,311.357 135.5,310C 139.272,297.089 140.439,283.922 139,270.5C 140.407,264.784 141.907,259.117 143.5,253.5C 140.995,243.82 136.495,235.153 130,227.5C 128.47,235.953 126.47,244.286 124,252.5C 122.151,258.187 118.317,261.52 112.5,262.5C 106.819,260.773 101.153,258.94 95.5,257C 89.5453,255.928 83.5453,255.428 77.5,255.5C 77.719,256.675 77.3857,257.675 76.5,258.5C 73.9058,259.592 71.7391,261.259 70,263.5C 68.6981,267.274 66.5314,270.441 63.5,273C 61.0966,273.63 59.2633,272.797 58,270.5C 55.6902,263.405 57.0236,257.072 62,251.5C 62.7826,239.357 67.9493,236.857 77.5,244C 85.6951,245.953 93.8617,245.786 102,243.5C 104.034,243.354 105.701,244.02 107,245.5C 108.223,234.289 107.223,223.289 104,212.5C 103.333,207.833 103.333,203.167 104,198.5C 107.024,192.286 110.19,186.12 113.5,180C 110.542,179.771 108.042,178.604 106,176.5C 104.335,172.343 103.502,168.01 103.5,163.5C 104.226,154.929 106.059,146.596 109,138.5C 112.097,135.911 114.597,132.911 116.5,129.5C 115.875,126.014 114.042,125.014 111,126.5C 109.13,124.781 106.963,123.781 104.5,123.5C 103.5,120.833 102.5,118.167 101.5,115.5C 97.6128,116.055 94.6128,114.721 92.5,111.5C 93.1098,110.495 93.7764,110.662 94.5,112C 97.6363,113.041 100.136,112.207 102,109.5C 102.312,105.88 101.646,102.546 100,99.5C 100.667,98.8333 101.333,98.1667 102,97.5C 103.331,100.834 105.165,103.834 107.5,106.5C 109.655,103.538 111.821,100.538 114,97.5C 115.409,96.2189 116.909,95.2189 118.5,94.5 Z"/></g>
<g><path style="opacity:0.961" fill="#fefffe" d="M 388.5,139.5 C 395.841,139.334 403.174,139.5 410.5,140C 422.919,142.087 430.419,149.253 433,161.5C 437.128,144.393 447.961,137.227 465.5,140C 476.015,143.833 482.181,151.333 484,162.5C 484.333,155.495 484.167,148.495 483.5,141.5C 492.5,141.5 501.5,141.5 510.5,141.5C 510.027,161.174 509.361,180.841 508.5,200.5C 501.167,200.5 493.833,200.5 486.5,200.5C 485.812,191.187 485.312,181.853 485,172.5C 484.359,181.944 480.859,190.11 474.5,197C 457.045,207.509 443.878,203.676 435,185.5C 433.617,180.92 432.617,176.253 432,171.5C 428.119,183.198 419.952,188.865 407.5,188.5C 407.5,192.5 407.5,196.5 407.5,200.5C 400.167,200.5 392.833,200.5 385.5,200.5C 384.726,181.99 383.726,163.49 382.5,145C 382.559,143.564 382.892,142.231 383.5,141C 385.382,140.802 387.048,140.302 388.5,139.5 Z M 408.5,164.5 C 413.314,164.069 415.98,166.235 416.5,171C 415.612,175.388 412.945,177.888 408.5,178.5C 408.294,173.964 408.294,169.298 408.5,164.5 Z M 457.5,165.5 C 459.582,165.472 461.416,166.139 463,167.5C 467.263,175.884 465.763,182.884 458.5,188.5C 453.927,185.634 451.927,181.467 452.5,176C 451.929,171.312 453.596,167.812 457.5,165.5 Z"/></g>
<g><path style="opacity:0.956" fill="#fefffe" d="M 728.5,139.5 C 746.48,137.34 757.314,145.006 761,162.5C 763.256,175.582 760.089,187.082 751.5,197C 730.763,207.75 716.93,201.917 710,179.5C 709.372,186.829 708.872,194.163 708.5,201.5C 696.614,203.445 684.947,202.612 673.5,199C 660.941,191.361 656.108,180.195 659,165.5C 660.876,153.959 667.376,146.459 678.5,143C 686.436,141.47 694.436,141.137 702.5,142C 704.426,150.003 705.426,158.17 705.5,166.5C 695.588,163.838 688.088,166.838 683,175.5C 682.15,184.651 686.317,189.484 695.5,190C 694.606,185.237 693.939,180.403 693.5,175.5C 698.833,175.5 704.167,175.5 709.5,175.5C 707.94,163.893 710.94,153.727 718.5,145C 721.767,142.87 725.1,141.037 728.5,139.5 Z M 734.5,165.5 C 736.582,165.472 738.416,166.139 740,167.5C 744.263,175.884 742.763,182.884 735.5,188.5C 730.927,185.634 728.927,181.467 729.5,176C 728.929,171.312 730.596,167.812 734.5,165.5 Z"/></g>
<g><path style="opacity:0.96" fill="#fefffe" d="M 511.5,141.5 C 518.508,141.334 525.508,141.5 532.5,142C 536.333,145.833 540.167,149.667 544,153.5C 544.499,149.514 544.666,145.514 544.5,141.5C 574.174,141.167 603.841,141.5 633.5,142.5C 635.432,147.796 637.265,153.129 639,158.5C 641.133,153.268 642.966,147.934 644.5,142.5C 649.467,141.338 654.467,141.171 659.5,142C 654.54,150.753 649.706,159.587 645,168.5C 643.457,179.106 642.623,189.772 642.5,200.5C 635.5,200.5 628.5,200.5 621.5,200.5C 621.81,189.734 620.976,179.067 619,168.5C 615.508,160.847 611.508,153.513 607,146.5C 606.792,152.551 606.292,158.551 605.5,164.5C 601.88,165.293 598.213,165.293 594.5,164.5C 593.76,176.495 593.093,188.495 592.5,200.5C 586.167,200.5 579.833,200.5 573.5,200.5C 572.549,188.531 571.882,176.531 571.5,164.5C 567.519,165.021 563.519,165.354 559.5,165.5C 559.666,159.158 559.5,152.825 559,146.5C 558.288,164.862 557.288,183.196 556,201.5C 547,194.5 538,187.5 529,180.5C 528.5,187.158 528.334,193.825 528.5,200.5C 523.833,200.5 519.167,200.5 514.5,200.5C 514.201,180.791 513.201,161.125 511.5,141.5 Z"/></g>
<g><path style="opacity:1" fill="#f7f9fb" d="M 154.5,315.5 C 156.099,315.232 157.432,315.566 158.5,316.5C 147.678,318.69 136.678,319.69 125.5,319.5C 110.82,318.841 96.1532,318.341 81.5,318C 119.152,349.323 162.485,362.323 211.5,357C 276.098,346.461 321.598,311.294 348,251.5C 352.426,239.463 355.759,227.13 358,214.5C 348.978,271.373 319.145,313.54 268.5,341C 215.681,365.883 163.015,365.549 110.5,340C 100.984,334.744 91.9839,328.744 83.5,322C 81.393,320.736 80.393,318.903 80.5,316.5C 102.651,318.273 124.817,318.607 147,317.5C 149.929,317.475 152.429,316.809 154.5,315.5 Z"/></g>
<g><path style="opacity:0.663" fill="#fefffe" d="M 425.5,218.5 C 426.5,218.5 427.5,218.5 428.5,218.5C 426.898,224.717 426.232,231.051 426.5,237.5C 425.5,237.5 424.5,237.5 423.5,237.5C 423.442,231.081 424.109,224.747 425.5,218.5 Z"/></g>
<g><path style="opacity:0.658" fill="#fefffe" d="M 430.5,218.5 C 431.5,218.5 432.5,218.5 433.5,218.5C 432.876,222.559 432.376,226.559 432,230.5C 433.5,229 435,227.5 436.5,226C 437.944,225.219 439.277,225.386 440.5,226.5C 438.717,228.232 436.717,229.732 434.5,231C 436.35,233.018 438.35,234.851 440.5,236.5C 438.926,237.631 437.259,237.798 435.5,237C 433.197,232.318 431.863,232.485 431.5,237.5C 430.5,237.5 429.5,237.5 428.5,237.5C 428.875,231.128 429.541,224.795 430.5,218.5 Z"/></g>
<g><path style="opacity:0.6" fill="#fefffe" d="M 546.5,218.5 C 547.978,218.238 549.311,218.571 550.5,219.5C 549.923,221.55 548.59,222.55 546.5,222.5C 546.5,221.167 546.5,219.833 546.5,218.5 Z"/></g>
<g><path style="opacity:0.748" fill="#fefffe" d="M 459.5,227.5 C 453.843,227.324 451.676,229.991 453,235.5C 454.439,233.986 455.939,233.653 457.5,234.5C 455.643,237.506 453.143,238.172 450,236.5C 449.502,234.473 449.669,232.473 450.5,230.5C 450.081,229.328 449.415,228.328 448.5,227.5C 449.325,226.614 450.325,226.281 451.5,226.5C 451.187,222.981 452.52,221.647 455.5,222.5C 455.167,223.167 454.833,223.833 454.5,224.5C 456.655,225.001 458.322,226.001 459.5,227.5 Z"/></g>
<g><path style="opacity:0.748" fill="#fefffe" d="M 504.5,221.5 C 507.205,221.38 507.872,222.38 506.5,224.5C 508.167,225.167 509.833,225.833 511.5,226.5C 505.983,227.173 503.816,230.173 505,235.5C 506.439,233.986 507.939,233.653 509.5,234.5C 507.643,237.506 505.143,238.172 502,236.5C 501.502,234.473 501.669,232.473 502.5,230.5C 502.081,229.328 501.415,228.328 500.5,227.5C 501.325,226.614 502.325,226.281 503.5,226.5C 503.629,224.784 503.962,223.117 504.5,221.5 Z"/></g>
<g><path style="opacity:0.716" fill="#fefffe" d="M 571.5,235.5 C 568.85,238.028 566.184,238.028 563.5,235.5C 561.929,236.309 560.262,236.643 558.5,236.5C 558.322,233.784 557.822,231.117 557,228.5C 550.818,241.093 548.485,240.427 550,226.5C 550.414,226.043 550.914,225.709 551.5,225.5C 552.298,227.078 552.798,228.744 553,230.5C 554.029,227.125 556.196,225.958 559.5,227C 560.264,229.069 560.764,231.236 561,233.5C 563.395,234.798 564.562,233.965 564.5,231C 564.156,229.635 563.489,228.468 562.5,227.5C 565.338,226.488 566.671,224.488 566.5,221.5C 567.5,221.5 568.5,221.5 569.5,221.5C 569.67,222.822 569.337,223.989 568.5,225C 570.433,225.251 572.266,225.751 574,226.5C 576.312,224.536 578.812,224.203 581.5,225.5C 579.345,226.41 577.345,227.577 575.5,229C 578.368,231.032 581.368,232.865 584.5,234.5C 583.711,236.488 582.545,236.821 581,235.5C 577.576,237.996 574.409,237.996 571.5,235.5 Z M 571.5,235.5 C 571.582,232.83 570.415,232.83 568,235.5C 566.614,233.253 566.781,230.92 568.5,228.5C 570.098,227.515 571.765,227.349 573.5,228C 572.167,229 572.167,230 573.5,231C 579.956,234.045 579.289,235.545 571.5,235.5 Z"/></g>
<g><path style="opacity:0.699" fill="#fefffe" d="M 415.5,224.5 C 420.702,224.364 422.369,226.697 420.5,231.5C 420.722,233.055 421.389,234.389 422.5,235.5C 420.602,236.734 418.935,236.401 417.5,234.5C 415.49,236.171 413.157,236.838 410.5,236.5C 409.978,231.549 411.645,227.549 415.5,224.5 Z M 415.5,227.5 C 416.675,227.281 417.675,227.614 418.5,228.5C 417.876,230.754 416.543,232.421 414.5,233.5C 414.167,233 413.833,232.5 413.5,232C 414.414,230.594 415.08,229.094 415.5,227.5 Z"/></g>
<g><path style="opacity:0.696" fill="#fefffe" d="M 459.5,227.5 C 461.516,224.856 464.183,224.023 467.5,225C 470.338,229.153 469.672,232.82 465.5,236C 463.5,236.667 461.5,236.667 459.5,236C 458.214,233.168 458.214,230.335 459.5,227.5 Z M 464.5,226.5 C 467.356,229.755 466.689,232.422 462.5,234.5C 461.015,231.248 461.682,228.581 464.5,226.5 Z"/></g>
<g><path style="opacity:0.714" fill="#fefffe" d="M 494.5,224.5 C 496.665,224.116 498.332,224.783 499.5,226.5C 498.028,229.805 495.695,232.305 492.5,234C 493.025,234.692 493.692,235.192 494.5,235.5C 496.332,234.752 497.999,233.752 499.5,232.5C 500.282,234.329 499.616,235.829 497.5,237C 493.26,238.539 490.593,237.206 489.5,233C 490.186,229.505 491.852,226.672 494.5,224.5 Z M 495.5,226.5 C 496.688,228.496 496.021,229.329 493.5,229C 494.381,228.292 495.047,227.458 495.5,226.5 Z"/></g>
<g><path style="opacity:0.708" fill="#fefffe" d="M 519.5,224.5 C 520.5,224.5 521.5,224.5 522.5,224.5C 522.351,225.552 522.517,226.552 523,227.5C 526.163,223.597 528.997,223.597 531.5,227.5C 530.495,233.171 527.162,236.505 521.5,237.5C 520.652,239.409 520.318,241.409 520.5,243.5C 519.5,243.5 518.5,243.5 517.5,243.5C 518.711,237.229 519.378,230.896 519.5,224.5 Z M 527.5,226.5 C 528.716,230.064 527.382,232.731 523.5,234.5C 522.417,233.635 522.251,232.635 523,231.5C 524.517,229.76 526.017,228.094 527.5,226.5 Z"/></g>
<g><path style="opacity:0.723" fill="#fefffe" d="M 535.5,224.5 C 543.289,224.406 545.122,227.739 541,234.5C 536.857,237.706 533.69,237.04 531.5,232.5C 532.32,229.528 533.653,226.861 535.5,224.5 Z M 537.5,226.5 C 540.902,227.558 541.402,229.558 539,232.5C 536.914,235.04 535.414,234.873 534.5,232C 535.124,229.915 536.124,228.082 537.5,226.5 Z"/></g>
<g><path style="opacity:0.689" fill="#fefffe" d="M 392.5,225.5 C 393.5,225.5 394.5,225.5 395.5,225.5C 395.074,234.643 396.574,235.31 400,227.5C 401.011,226.663 402.178,226.33 403.5,226.5C 403.773,233.652 404.94,233.986 407,227.5C 408.185,225.441 409.352,225.274 410.5,227C 409.333,229.833 408.167,232.667 407,235.5C 405.951,236.517 404.784,236.684 403.5,236C 402.283,234.352 401.45,232.519 401,230.5C 400.038,233.456 398.372,235.79 396,237.5C 393.052,234.12 391.885,230.12 392.5,225.5 Z"/></g>
<g><path style="opacity:0.701" fill="#fefffe" d="M 483.5,225.5 C 485.5,225.5 487.5,225.5 489.5,225.5C 489.087,230.894 488.253,236.227 487,241.5C 483.205,245.455 479.372,245.455 475.5,241.5C 477.588,240.511 479.588,240.844 481.5,242.5C 484.478,241.061 485.645,238.728 485,235.5C 481.854,238.432 479.354,238.098 477.5,234.5C 478.706,230.962 480.706,227.962 483.5,225.5 Z M 485.5,227.5 C 486.475,231.201 484.975,233.868 481,235.5C 480.333,234.5 480.333,233.5 481,232.5C 482.707,230.963 484.207,229.296 485.5,227.5 Z"/></g>
<g><path style="opacity:0.714" fill="#fefffe" d="M 545.5,225.5 C 546.649,225.791 547.316,226.624 547.5,228C 547.064,231.218 546.398,234.384 545.5,237.5C 544.28,237.113 543.613,236.28 543.5,235C 544.123,231.785 544.79,228.618 545.5,225.5 Z"/></g>
<g><path style="opacity:1" fill="#fefffe" d="M 272.5,285.5 C 238.915,302.483 203.248,312.483 165.5,315.5C 167.484,313.54 168.317,311.207 168,308.5C 164.086,305.593 160.419,302.26 157,298.5C 152.88,292.111 152.38,285.444 155.5,278.5C 189.207,274.282 221.707,265.615 253,252.5C 255.973,256.781 258.14,261.447 259.5,266.5C 254.366,279.901 258.699,286.234 272.5,285.5 Z"/></g>
<g><path style="opacity:1" fill="#f7fafc" d="M 273.5,284.5 C 273.719,285.675 273.386,286.675 272.5,287.5C 238.551,304.276 202.884,313.609 165.5,315.5C 203.248,312.483 238.915,302.483 272.5,285.5C 272.5,284.833 272.833,284.5 273.5,284.5 Z"/></g>
</svg>
