<?xml version="1.0" standalone="no"?>
<!DOCTYPE svg PUBLIC "-//W3C//DTD SVG 20010904//EN"
 "http://www.w3.org/TR/2001/REC-SVG-20010904/DTD/svg10.dtd">
<svg version="1.0" xmlns="http://www.w3.org/2000/svg"
 width="382.000000pt" height="490.000000pt" viewBox="0 0 382.000000 490.000000"
 preserveAspectRatio="xMidYMid meet">

<g transform="translate(0.000000,490.000000) scale(0.100000,-0.100000)"
fill="#000000" stroke="none">
<path d="M2364 4376 c-35 -15 -72 -58 -80 -92 -7 -28 18 -108 40 -130 28 -28
18 -94 -15 -94 -30 0 -109 -30 -149 -56 -40 -27 -182 -185 -217 -242 -13 -21
-23 -46 -23 -57 0 -13 32 -53 80 -101 44 -45 80 -87 80 -95 0 -8 -25 -29 -55
-47 -51 -31 -67 -53 -47 -66 5 -3 34 11 66 30 81 49 84 47 78 -36 -6 -83 11
-155 69 -301 26 -64 41 -119 44 -165 9 -97 -8 -126 -103 -180 -47 -26 -97 -65
-135 -106 -49 -52 -72 -69 -107 -78 -92 -24 -114 -36 -133 -67 -17 -29 -17
-41 -7 -134 20 -179 51 -212 102 -109 19 37 30 79 34 128 9 91 9 91 234 199
175 84 218 118 271 211 13 23 30 42 36 42 7 0 26 -19 43 -42 24 -33 30 -51 30
-93 0 -29 -5 -66 -11 -84 -17 -49 -4 -89 65 -203 79 -131 90 -163 83 -245 -4
-35 -2 -75 3 -88 8 -21 16 -25 54 -25 25 0 48 5 51 10 3 6 22 10 41 10 57 0
132 29 160 63 l26 31 -71 12 c-74 13 -105 27 -154 73 -43 39 -55 69 -83 208
-22 110 -25 145 -21 248 5 115 4 123 -24 197 -25 63 -28 80 -18 96 10 16 8 28
-12 68 -23 47 -24 57 -24 259 0 186 2 216 19 253 15 34 24 42 45 42 15 0 34
-8 43 -17 38 -41 65 -61 75 -55 11 8 23 80 13 84 -19 9 -71 167 -79 241 -4 45
-15 97 -25 114 -19 38 -91 83 -131 83 -25 0 -27 3 -21 28 27 116 13 237 -31
272 -30 23 -65 25 -109 6z m-215 -650 c5 -12 9 -50 8 -82 -2 -55 -4 -59 -26
-59 -45 0 -97 143 -58 158 33 14 68 6 76 -17z"/>
<path d="M1194 3900 c-12 -5 -36 -31 -54 -59 -35 -54 -54 -62 -76 -33 -12 15
-13 14 -14 -14 0 -30 -19 -56 -50 -67 -9 -3 -4 -6 11 -6 16 -1 29 -8 33 -18
21 -56 54 -83 101 -83 58 0 60 -59 5 -115 -35 -35 -44 -54 -66 -140 -41 -158
-23 -268 46 -282 17 -3 30 -10 30 -14 0 -5 -22 -53 -50 -107 -58 -114 -62
-148 -30 -280 24 -100 28 -282 7 -282 -7 0 -18 5 -24 11 -9 9 -29 8 -78 -1
-93 -17 -183 -8 -230 25 -21 14 -41 25 -45 25 -22 0 -51 -39 -56 -75 -4 -22
-18 -57 -32 -78 -33 -49 -35 -118 -5 -148 l20 -20 24 29 c13 16 32 44 41 61
10 17 31 39 48 49 16 9 30 23 30 31 0 26 171 7 275 -30 88 -31 90 -31 122 -13
45 24 78 94 105 227 14 65 28 107 35 107 13 0 96 -123 124 -185 25 -53 24
-108 -3 -175 -19 -47 -21 -72 -20 -178 2 -68 -2 -140 -7 -160 -5 -20 -12 -60
-16 -88 l-6 -51 83 -6 c46 -4 99 -9 118 -12 23 -4 42 -1 54 8 19 14 18 16 -21
41 -93 62 -123 161 -89 295 9 34 20 126 26 204 5 78 12 160 15 182 11 80 -19
196 -82 322 -50 100 -61 132 -72 209 -11 74 -11 95 -1 115 7 13 13 33 14 46 1
13 15 31 36 45 28 19 36 31 38 61 2 20 9 37 15 37 30 -1 92 -30 98 -46 4 -11
8 -13 8 -6 2 31 -24 54 -104 92 -83 40 -84 41 -115 106 -24 50 -40 69 -66 81
-39 19 -47 57 -15 68 21 6 31 40 37 131 3 51 0 67 -19 95 -43 64 -101 90 -153
69z"/>
<path d="M1030 3851 c0 -6 4 -13 10 -16 6 -3 7 1 4 9 -7 18 -14 21 -14 7z"/>
<path d="M3543 2683 c-119 -164 -289 -339 -445 -455 -55 -42 -78 -66 -83 -87
-3 -16 -16 -38 -29 -50 -28 -26 -137 -71 -173 -71 -33 0 -97 -23 -205 -74
-112 -52 -414 -151 -553 -180 -155 -32 -386 -66 -500 -74 -139 -9 -538 -5
-659 7 -60 6 -111 10 -112 8 -2 -1 35 -34 82 -71 564 -456 1391 -486 2010 -75
147 97 362 312 456 454 139 211 228 436 272 691 7 41 12 74 12 74 -1 0 -34
-44 -73 -97z"/>
</g>
</svg>
